<svg width="71" height="53" viewBox="0 0 71 53" fill="none" xmlns="http://www.w3.org/2000/svg">
<path d="M13.2526 27.0438C15.6414 25.3712 16.2224 22.0761 14.5498 19.6873C12.8772 17.2986 9.58208 16.7176 7.19332 18.3902C4.80456 20.0628 4.22355 23.3579 5.89618 25.7467C7.5688 28.1354 10.8639 28.7164 13.2526 27.0438ZM12.8837 31.601C10.2335 33.4566 9.58762 37.1195 11.4433 39.7697C12.3711 41.0948 14.2012 41.4254 15.5353 40.4913L20.5923 36.9503C19.1611 33.3716 19.6546 29.3183 21.8241 26.2006C20.8892 26.3044 19.9598 26.6462 19.1395 27.2206L12.8837 31.601Z" fill="url(#paint0_radial_223_11)"/>
<path d="M40.3983 32.7168C39.2807 32.7168 38.3748 33.9514 38.3748 35.4691C38.3748 36.9899 39.2807 38.2245 40.3983 38.2245C41.5159 38.2245 42.4218 36.9899 42.4218 35.4691C42.4203 33.9514 41.5159 32.7168 40.3983 32.7168ZM47.4432 25.552C47.6752 24.9936 47.6845 21.8205 46.4548 18.7805C46.4548 18.7805 43.6359 19.085 39.371 21.9628C38.476 21.718 36.9614 21.5987 35.45 21.5987C33.9355 21.5987 32.4226 21.718 31.5275 21.9628C27.261 19.085 24.4421 18.7805 24.4421 18.7805C23.214 21.8205 23.2265 24.9936 23.4553 25.552C22.0108 27.0942 21.1282 28.947 21.1282 31.4744C21.1282 42.4686 30.4099 42.6445 32.751 42.6445L35.45 42.6476L38.146 42.6445C40.4901 42.6445 49.7687 42.4686 49.7687 31.4744C49.7687 28.947 48.8877 27.0942 47.4432 25.552ZM35.4921 41.2936H35.4049C29.5352 41.2936 24.962 40.6067 24.962 34.9979C24.962 33.6531 25.4445 32.4077 26.5917 31.3735C28.5016 29.6492 31.7361 30.5611 35.4049 30.5611H35.4921C39.1608 30.5611 42.3969 29.6492 44.3084 31.3735C45.4524 32.4077 45.9349 33.6531 45.9349 34.9979C45.9349 40.6067 41.3634 41.2936 35.4921 41.2936ZM30.5002 32.7168C29.3826 32.7168 28.4767 33.9514 28.4767 35.4691C28.4767 36.9899 29.3826 38.2245 30.5002 38.2245C31.6194 38.2245 32.5253 36.9899 32.5253 35.4691C32.5253 33.9514 31.6194 32.7168 30.5002 32.7168Z" fill="url(#paint1_radial_223_11)"/>
<path d="M57.7747 27.0471C55.3705 25.3948 54.7606 22.1037 56.4129 19.6996C58.0652 17.2955 61.3563 16.6855 63.7604 18.3378C66.1645 19.9901 66.7745 23.2812 65.1222 25.6854C63.4699 28.0895 60.1788 28.6994 57.7747 27.0471ZM58.1835 31.6025C60.8508 33.4357 61.5288 37.0941 59.6957 39.7614C58.7791 41.095 56.9513 41.4417 55.6086 40.5189L50.5191 37.0209C51.9195 33.4285 51.3905 29.3783 49.1931 26.2785C50.1292 26.3742 51.0619 26.708 51.8874 27.2754L58.1835 31.6025Z" fill="url(#paint2_radial_223_11)"/>
<path d="M4.95193 4.95193H14.0305C15.4026 4.95193 16.5064 3.84806 16.5064 2.47597C16.5064 1.10387 15.4026 0 14.0305 0H3.30129C1.47526 0 0 1.47526 0 3.30129V14.0305C0 15.4026 1.10387 16.5064 2.47597 16.5064C3.84806 16.5064 4.95193 15.4026 4.95193 14.0305V4.95193ZM4.95193 47.8687V38.7901C4.95193 37.418 3.84806 36.3142 2.47597 36.3142C1.10387 36.3142 0 37.418 0 38.7901V49.5193C0 51.3453 1.47526 52.8206 3.30129 52.8206H14.0305C15.4026 52.8206 16.5064 51.7167 16.5064 50.3446C16.5064 48.9725 15.4026 47.8687 14.0305 47.8687H4.95193Z" fill="url(#paint3_radial_223_11)"/>
<path d="M56.397 4.95193H65.4755V14.0305C65.4755 15.4026 66.5794 16.5064 67.9515 16.5064C69.3236 16.5064 70.4275 15.4026 70.4275 14.0305V3.30129C70.4275 1.47526 68.9522 0 67.1262 0H56.397C55.0249 0 53.921 1.10387 53.921 2.47597C53.921 3.84806 55.0249 4.95193 56.397 4.95193ZM56.397 47.8687C55.0249 47.8687 53.921 48.9725 53.921 50.3446C53.921 51.7167 55.0249 52.8206 56.397 52.8206H67.1262C68.9522 52.8206 70.4275 51.3453 70.4275 49.5193V38.7901C70.4275 37.418 69.3236 36.3142 67.9515 36.3142C66.5794 36.3142 65.4755 37.418 65.4755 38.7901V47.8687H56.397Z" fill="url(#paint4_radial_223_11)"/>
<defs>
<radialGradient id="paint0_radial_223_11" cx="0" cy="0" r="1" gradientUnits="userSpaceOnUse" gradientTransform="translate(13.2348 28.131) rotate(55) scale(11.4445 8.14317)">
<stop offset="0.00520833" stop-color="#8001D7"/>
<stop offset="1" stop-color="#1C4CCF"/>
</radialGradient>
<radialGradient id="paint1_radial_223_11" cx="0" cy="0" r="1" gradientUnits="userSpaceOnUse" gradientTransform="translate(35.4485 30.7141) rotate(90) scale(11.9335 14.3202)">
<stop offset="0.00520833" stop-color="#8001D7"/>
<stop offset="1" stop-color="#1C4CCF"/>
</radialGradient>
<radialGradient id="paint2_radial_223_11" cx="0" cy="0" r="1" gradientUnits="userSpaceOnUse" gradientTransform="translate(57.802 28.1345) rotate(124.5) scale(11.4486 8.14611)">
<stop offset="0.00520833" stop-color="#8001D7"/>
<stop offset="1" stop-color="#1C4CCF"/>
</radialGradient>
<radialGradient id="paint3_radial_223_11" cx="0" cy="0" r="1" gradientUnits="userSpaceOnUse" gradientTransform="translate(6.53921 33.8052) rotate(101.212) scale(30.8731 180.648)">
<stop stop-color="#8001D7"/>
<stop offset="1" stop-color="#1C4CCF"/>
</radialGradient>
<radialGradient id="paint4_radial_223_11" cx="0" cy="0" r="1" gradientUnits="userSpaceOnUse" gradientTransform="translate(60.4602 33.8052) rotate(101.212) scale(30.8731 180.648)">
<stop stop-color="#8001D7"/>
<stop offset="1" stop-color="#1C4CCF"/>
</radialGradient>
</defs>
</svg>
