<svg width="501" height="75" viewBox="0 0 501 75" fill="none" xmlns="http://www.w3.org/2000/svg">
<path d="M121.032 29.1941C120.731 28.1476 120.308 27.2229 119.763 26.42C119.218 25.6028 118.551 24.9147 117.763 24.3555C116.989 23.7821 116.1 23.3448 115.096 23.0437C114.107 22.7427 113.01 22.5921 111.806 22.5921C109.555 22.5921 107.577 23.1512 105.871 24.2695C104.179 25.3878 102.86 27.015 101.914 29.1511C100.967 31.273 100.494 33.8679 100.494 36.9359C100.494 40.004 100.96 42.6132 101.892 44.7637C102.824 46.9142 104.143 48.5558 105.849 49.6884C107.555 50.8066 109.569 51.3657 111.892 51.3657C113.999 51.3657 115.799 50.993 117.29 50.2475C118.795 49.4876 119.942 48.4196 120.731 47.0432C121.533 45.6669 121.935 44.0397 121.935 42.1616L123.827 42.4412H112.473V35.4306H130.902V40.9789C130.902 44.8497 130.085 48.1758 128.451 50.9571C126.816 53.7241 124.566 55.8603 121.698 57.3656C118.831 58.8566 115.548 59.6021 111.849 59.6021C107.72 59.6021 104.093 58.6918 100.967 56.871C97.8421 55.0359 95.4049 52.4338 93.6558 49.0647C91.9211 45.6813 91.0537 41.667 91.0537 37.0219C91.0537 33.4521 91.5698 30.2694 92.6021 27.4737C93.6486 24.6638 95.111 22.2839 96.9891 20.3341C98.8672 18.3843 101.054 16.9005 103.548 15.8826C106.043 14.8647 108.745 14.3557 111.655 14.3557C114.15 14.3557 116.473 14.7213 118.623 15.4525C120.774 16.1693 122.68 17.1872 124.343 18.5062C126.021 19.8251 127.39 21.395 128.451 23.2158C129.512 25.0222 130.193 27.015 130.494 29.1941H121.032ZM139.795 59V25.9684H148.956V59H139.795ZM144.397 21.7104C143.035 21.7104 141.866 21.2588 140.891 20.3556C139.931 19.4381 139.451 18.3413 139.451 17.0653C139.451 15.8037 139.931 14.7213 140.891 13.8181C141.866 12.9006 143.035 12.4418 144.397 12.4418C145.759 12.4418 146.92 12.9006 147.881 13.8181C148.855 14.7213 149.343 15.8037 149.343 17.0653C149.343 18.3413 148.855 19.4381 147.881 20.3556C146.92 21.2588 145.759 21.7104 144.397 21.7104ZM173.864 25.9684V32.85H153.972V25.9684H173.864ZM158.488 18.0546H167.649V48.8497C167.649 49.6955 167.778 50.355 168.036 50.8281C168.294 51.2869 168.653 51.6095 169.111 51.7958C169.584 51.9822 170.129 52.0754 170.746 52.0754C171.176 52.0754 171.606 52.0396 172.036 51.9679C172.466 51.8819 172.796 51.8173 173.025 51.7743L174.466 58.5914C174.007 58.7348 173.362 58.8996 172.531 59.086C171.699 59.2867 170.688 59.4086 169.498 59.4516C167.291 59.5376 165.355 59.2437 163.692 58.5699C162.043 57.8961 160.76 56.8495 159.843 55.4302C158.925 54.0109 158.474 52.2188 158.488 50.0539V18.0546ZM189.702 39.9036V59H180.541V14.9579H189.444V31.7962H189.831C190.577 29.8465 191.781 28.3196 193.444 27.2157C195.107 26.0974 197.193 25.5383 199.702 25.5383C201.996 25.5383 203.996 26.0401 205.702 27.0436C207.422 28.0329 208.756 29.4594 209.702 31.3231C210.662 33.1726 211.136 35.3876 211.121 37.9682V59H201.96V39.6025C201.974 37.5667 201.458 35.9825 200.412 34.8499C199.38 33.7173 197.932 33.1511 196.068 33.1511C194.82 33.1511 193.717 33.4163 192.756 33.9467C191.81 34.4772 191.064 35.2514 190.519 36.2693C189.989 37.2728 189.717 38.4843 189.702 39.9036ZM239.513 44.9358V25.9684H248.674V59H239.879V53.0001H239.535C238.789 54.9356 237.549 56.4911 235.814 57.6667C234.094 58.8423 231.994 59.4301 229.513 59.4301C227.305 59.4301 225.363 58.9283 223.685 57.9248C222.008 56.9212 220.696 55.4947 219.75 53.6453C218.818 51.7958 218.345 49.5808 218.331 47.0002V25.9684H227.492V45.3659C227.506 47.3156 228.029 48.8568 229.062 49.9894C230.094 51.122 231.477 51.6883 233.212 51.6883C234.316 51.6883 235.348 51.4374 236.309 50.9356C237.269 50.4195 238.044 49.6597 238.631 48.6561C239.234 47.6526 239.527 46.4124 239.513 44.9358ZM256.174 59V14.9579H265.335V31.5167H265.615C266.016 30.6278 266.597 29.7246 267.357 28.8071C268.131 27.8752 269.134 27.101 270.367 26.4845C271.615 25.8537 273.163 25.5383 275.012 25.5383C277.421 25.5383 279.643 26.1691 281.679 27.4307C283.715 28.678 285.342 30.5633 286.561 33.0865C287.779 35.5954 288.388 38.7423 288.388 42.5272C288.388 46.2117 287.794 49.3228 286.604 51.8604C285.428 54.3836 283.822 56.2975 281.786 57.6022C279.765 58.8925 277.5 59.5376 274.991 59.5376C273.213 59.5376 271.701 59.2437 270.453 58.6559C269.22 58.0681 268.21 57.3298 267.421 56.4409C266.633 55.5377 266.031 54.6273 265.615 53.7098H265.206V59H256.174ZM265.142 42.4842C265.142 44.4483 265.414 46.1615 265.959 47.6239C266.504 49.0862 267.292 50.226 268.324 51.0432C269.357 51.846 270.611 52.2474 272.088 52.2474C273.579 52.2474 274.84 51.8389 275.873 51.0217C276.905 50.1901 277.686 49.0432 278.217 47.5809C278.761 46.1042 279.034 44.4053 279.034 42.4842C279.034 40.5774 278.769 38.9 278.238 37.452C277.708 36.004 276.926 34.8714 275.894 34.0543C274.862 33.2371 273.593 32.8285 272.088 32.8285C270.597 32.8285 269.335 33.2227 268.303 34.0112C267.285 34.7998 266.504 35.918 265.959 37.366C265.414 38.814 265.142 40.5201 265.142 42.4842ZM308.689 59V14.9579H337.85V22.6351H318.001V33.1295H335.914V40.8068H318.001V59H308.689ZM343.941 59V25.9684H353.102V59H343.941ZM348.543 21.7104C347.181 21.7104 346.013 21.2588 345.038 20.3556C344.077 19.4381 343.597 18.3413 343.597 17.0653C343.597 15.8037 344.077 14.7213 345.038 13.8181C346.013 12.9006 347.181 12.4418 348.543 12.4418C349.905 12.4418 351.066 12.9006 352.027 13.8181C353.002 14.7213 353.489 15.8037 353.489 17.0653C353.489 18.3413 353.002 19.4381 352.027 20.3556C351.066 21.2588 349.905 21.7104 348.543 21.7104ZM369.602 39.9036V59H360.441V25.9684H369.172V31.7962H369.559C370.29 29.8751 371.516 28.3554 373.236 27.2372C374.957 26.1046 377.043 25.5383 379.494 25.5383C381.788 25.5383 383.788 26.0401 385.494 27.0436C387.2 28.0472 388.526 29.4809 389.472 31.3446C390.419 33.1941 390.892 35.4019 390.892 37.9682V59H381.731V39.6025C381.745 37.5811 381.229 36.004 380.182 34.8714C379.136 33.7245 377.695 33.1511 375.86 33.1511C374.627 33.1511 373.537 33.4163 372.591 33.9467C371.659 34.4772 370.928 35.2514 370.398 36.2693C369.881 37.2728 369.616 38.4843 369.602 39.9036ZM410.284 59.5376C407.775 59.5376 405.503 58.8925 403.467 57.6022C401.445 56.2975 399.84 54.3836 398.65 51.8604C397.474 49.3228 396.886 46.2117 396.886 42.5272C396.886 38.7423 397.496 35.5954 398.714 33.0865C399.933 30.5633 401.553 28.678 403.574 27.4307C405.61 26.1691 407.84 25.5383 410.262 25.5383C412.112 25.5383 413.653 25.8537 414.886 26.4845C416.133 27.101 417.137 27.8752 417.897 28.8071C418.671 29.7246 419.259 30.6278 419.66 31.5167H419.94V14.9579H429.079V59H420.047V53.7098H419.66C419.23 54.6273 418.621 55.5377 417.832 56.4409C417.058 57.3298 416.047 58.0681 414.8 58.6559C413.567 59.2437 412.062 59.5376 410.284 59.5376ZM413.187 52.2474C414.664 52.2474 415.911 51.846 416.929 51.0432C417.961 50.226 418.75 49.0862 419.294 47.6239C419.854 46.1615 420.133 44.4483 420.133 42.4842C420.133 40.5201 419.861 38.814 419.316 37.366C418.771 35.918 417.983 34.7998 416.95 34.0112C415.918 33.2227 414.664 32.8285 413.187 32.8285C411.682 32.8285 410.413 33.2371 409.381 34.0543C408.348 34.8714 407.567 36.004 407.037 37.452C406.506 38.9 406.241 40.5774 406.241 42.4842C406.241 44.4053 406.506 46.1042 407.037 47.5809C407.581 49.0432 408.363 50.1901 409.381 51.0217C410.413 51.8389 411.682 52.2474 413.187 52.2474ZM451.665 59.6451C448.267 59.6451 445.342 58.957 442.891 57.5807C440.454 56.19 438.575 54.2259 437.256 51.6883C435.938 49.1364 435.278 46.1185 435.278 42.6347C435.278 39.237 435.938 36.2549 437.256 33.6887C438.575 31.1224 440.432 29.1225 442.826 27.6888C445.235 26.2551 448.059 25.5383 451.299 25.5383C453.478 25.5383 455.507 25.8895 457.385 26.592C459.278 27.2802 460.926 28.3196 462.331 29.7103C463.751 31.1009 464.855 32.85 465.643 34.9575C466.432 37.0506 466.826 39.5022 466.826 42.3122V44.8282H438.934V39.1509H458.202C458.202 37.832 457.916 36.6635 457.342 35.6456C456.769 34.6277 455.973 33.832 454.955 33.2586C453.952 32.6708 452.783 32.3769 451.45 32.3769C450.059 32.3769 448.826 32.6994 447.751 33.3446C446.69 33.9754 445.858 34.8284 445.256 35.9037C444.654 36.9646 444.346 38.1474 444.332 39.452V44.8497C444.332 46.4841 444.633 47.8963 445.235 49.0862C445.851 50.2762 446.719 51.1937 447.837 51.8389C448.955 52.484 450.281 52.8066 451.815 52.8066C452.833 52.8066 453.765 52.6632 454.611 52.3765C455.457 52.0897 456.181 51.6596 456.783 51.0862C457.385 50.5127 457.844 49.8102 458.159 48.9787L466.632 49.5378C466.202 51.5736 465.32 53.3514 463.987 54.871C462.668 56.3764 460.962 57.552 458.869 58.3979C456.79 59.2294 454.389 59.6451 451.665 59.6451ZM472.804 59V25.9684H481.686V31.7317H482.03C482.632 29.6816 483.643 28.1332 485.062 27.0867C486.481 26.0257 488.116 25.4953 489.965 25.4953C490.424 25.4953 490.919 25.524 491.449 25.5813C491.979 25.6387 492.445 25.7175 492.847 25.8179V33.9467C492.417 33.8177 491.822 33.703 491.062 33.6027C490.302 33.5023 489.607 33.4521 488.976 33.4521C487.628 33.4521 486.424 33.746 485.363 34.3338C484.317 34.9073 483.485 35.7101 482.869 36.7424C482.266 37.7746 481.965 38.9646 481.965 40.3122V59H472.804Z" fill="url(#paint0_linear_217_22)"/>
<path d="M13.2526 38.0438C15.6414 36.3712 16.2224 33.0761 14.5498 30.6873C12.8772 28.2986 9.58208 27.7176 7.19332 29.3902C4.80456 31.0628 4.22355 34.3579 5.89618 36.7467C7.5688 39.1354 10.8639 39.7164 13.2526 38.0438ZM12.8837 42.601C10.2335 44.4566 9.58762 48.1195 11.4433 50.7697C12.3711 52.0948 14.2012 52.4254 15.5353 51.4913L20.5923 47.9503C19.1611 44.3716 19.6546 40.3183 21.8241 37.2006C20.8892 37.3044 19.9598 37.6462 19.1395 38.2206L12.8837 42.601Z" fill="url(#paint1_radial_217_22)"/>
<path d="M40.3983 43.7168C39.2807 43.7168 38.3748 44.9514 38.3748 46.4691C38.3748 47.9899 39.2807 49.2245 40.3983 49.2245C41.5159 49.2245 42.4218 47.9899 42.4218 46.4691C42.4203 44.9514 41.5159 43.7168 40.3983 43.7168ZM47.4432 36.552C47.6752 35.9936 47.6845 32.8205 46.4548 29.7805C46.4548 29.7805 43.6359 30.085 39.371 32.9628C38.476 32.718 36.9614 32.5987 35.45 32.5987C33.9355 32.5987 32.4226 32.718 31.5275 32.9628C27.261 30.085 24.4421 29.7805 24.4421 29.7805C23.214 32.8205 23.2265 35.9936 23.4553 36.552C22.0108 38.0942 21.1282 39.947 21.1282 42.4744C21.1282 53.4686 30.4099 53.6445 32.751 53.6445L35.45 53.6476L38.146 53.6445C40.4901 53.6445 49.7687 53.4686 49.7687 42.4744C49.7687 39.947 48.8877 38.0942 47.4432 36.552ZM35.4921 52.2936H35.4049C29.5352 52.2936 24.962 51.6067 24.962 45.9979C24.962 44.6531 25.4445 43.4077 26.5917 42.3735C28.5016 40.6492 31.7361 41.5611 35.4049 41.5611H35.4921C39.1608 41.5611 42.3969 40.6492 44.3084 42.3735C45.4524 43.4077 45.9349 44.6531 45.9349 45.9979C45.9349 51.6067 41.3634 52.2936 35.4921 52.2936ZM30.5002 43.7168C29.3826 43.7168 28.4767 44.9514 28.4767 46.4691C28.4767 47.9899 29.3826 49.2245 30.5002 49.2245C31.6194 49.2245 32.5253 47.9899 32.5253 46.4691C32.5253 44.9514 31.6194 43.7168 30.5002 43.7168Z" fill="url(#paint2_radial_217_22)"/>
<path d="M57.7747 38.0471C55.3705 36.3948 54.7606 33.1037 56.4129 30.6996C58.0652 28.2955 61.3563 27.6855 63.7604 29.3378C66.1645 30.9901 66.7745 34.2812 65.1222 36.6854C63.4699 39.0895 60.1788 39.6994 57.7747 38.0471ZM58.1835 42.6025C60.8508 44.4357 61.5288 48.0941 59.6957 50.7614C58.7791 52.095 56.9513 52.4417 55.6086 51.5189L50.5191 48.0209C51.9195 44.4285 51.3905 40.3783 49.1931 37.2785C50.1292 37.3742 51.0619 37.708 51.8874 38.2754L58.1835 42.6025Z" fill="url(#paint3_radial_217_22)"/>
<path d="M4.95193 15.9519H14.0305C15.4026 15.9519 16.5064 14.8481 16.5064 13.476C16.5064 12.1039 15.4026 11 14.0305 11H3.30129C1.47526 11 0 12.4753 0 14.3013V25.0305C0 26.4026 1.10387 27.5064 2.47597 27.5064C3.84806 27.5064 4.95193 26.4026 4.95193 25.0305V15.9519ZM4.95193 58.8687V49.7901C4.95193 48.418 3.84806 47.3142 2.47597 47.3142C1.10387 47.3142 0 48.418 0 49.7901V60.5193C0 62.3453 1.47526 63.8206 3.30129 63.8206H14.0305C15.4026 63.8206 16.5064 62.7167 16.5064 61.3446C16.5064 59.9725 15.4026 58.8687 14.0305 58.8687H4.95193Z" fill="url(#paint4_radial_217_22)"/>
<path d="M56.397 15.9519H65.4755V25.0305C65.4755 26.4026 66.5794 27.5064 67.9515 27.5064C69.3236 27.5064 70.4275 26.4026 70.4275 25.0305V14.3013C70.4275 12.4753 68.9522 11 67.1262 11H56.397C55.0249 11 53.921 12.1039 53.921 13.476C53.921 14.8481 55.0249 15.9519 56.397 15.9519ZM56.397 58.8687C55.0249 58.8687 53.921 59.9725 53.921 61.3446C53.921 62.7167 55.0249 63.8206 56.397 63.8206H67.1262C68.9522 63.8206 70.4275 62.3453 70.4275 60.5193V49.7901C70.4275 48.418 69.3236 47.3142 67.9515 47.3142C66.5794 47.3142 65.4755 48.418 65.4755 49.7901V58.8687H56.397Z" fill="url(#paint5_radial_217_22)"/>
<defs>
<linearGradient id="paint0_linear_217_22" x1="401.815" y1="5" x2="96.0878" y2="62.8501" gradientUnits="userSpaceOnUse">
<stop stop-color="#FE3BFF"/>
<stop offset="0.15625" stop-color="#A603C5"/>
<stop offset="0.28125" stop-color="#8001D7"/>
<stop offset="0.411458" stop-color="#417DFD"/>
<stop offset="0.697917" stop-color="#1C4CCF"/>
<stop offset="1" stop-color="#4904D7"/>
</linearGradient>
<radialGradient id="paint1_radial_217_22" cx="0" cy="0" r="1" gradientUnits="userSpaceOnUse" gradientTransform="translate(13.2348 39.131) rotate(55) scale(11.4445 8.14317)">
<stop offset="0.00520833" stop-color="#8001D7"/>
<stop offset="1" stop-color="#1C4CCF"/>
</radialGradient>
<radialGradient id="paint2_radial_217_22" cx="0" cy="0" r="1" gradientUnits="userSpaceOnUse" gradientTransform="translate(35.4485 41.7141) rotate(90) scale(11.9335 14.3202)">
<stop offset="0.00520833" stop-color="#8001D7"/>
<stop offset="1" stop-color="#1C4CCF"/>
</radialGradient>
<radialGradient id="paint3_radial_217_22" cx="0" cy="0" r="1" gradientUnits="userSpaceOnUse" gradientTransform="translate(57.802 39.1345) rotate(124.5) scale(11.4486 8.14611)">
<stop offset="0.00520833" stop-color="#8001D7"/>
<stop offset="1" stop-color="#1C4CCF"/>
</radialGradient>
<radialGradient id="paint4_radial_217_22" cx="0" cy="0" r="1" gradientUnits="userSpaceOnUse" gradientTransform="translate(6.53921 44.8052) rotate(101.212) scale(30.8731 180.648)">
<stop stop-color="#8001D7"/>
<stop offset="1" stop-color="#1C4CCF"/>
</radialGradient>
<radialGradient id="paint5_radial_217_22" cx="0" cy="0" r="1" gradientUnits="userSpaceOnUse" gradientTransform="translate(60.4602 44.8052) rotate(101.212) scale(30.8731 180.648)">
<stop stop-color="#8001D7"/>
<stop offset="1" stop-color="#1C4CCF"/>
</radialGradient>
</defs>
</svg>
